HIERARCHY
ROOT Hips
{
 OFFSET 0.000000 0.000000 0.000000
 CHANNELS 6 Xposition Yposition Zposition Yrotation Xrotation Zrotation
 JOINT Chest
 {
  OFFSET 0.000000 9.585900 0.002600
  CHANNELS 3 Yrotation Xrotation Zrotation
  JOINT Chest2
  {
   OFFSET 0.000000 9.601200 -0.005300
   CHANNELS 3 Yrotation Xrotation Zrotation
   JOINT Chest3
   {
    OFFSET 0.000000 9.561800 0.000000
    CHANNELS 3 Yrotation Xrotation Zrotation
    JOINT Chest4
    {
     OFFSET 0.000000 9.552100 0.000000
     CHANNELS 3 Yrotation Xrotation Zrotation
     JOINT Neck
     {
      OFFSET 0.000000 14.453000 0.000000
      CHANNELS 3 Yrotation Xrotation Zrotation
      JOINT Head
      {
       OFFSET 0.000000 8.936500 -0.011300
       CHANNELS 3 Yrotation Xrotation Zrotation
       End Site
       {
        OFFSET 0.000000 17.073600 -0.006000
       }
      }
     }
     JOINT RightCollar
     {
      OFFSET -2.921100 9.558500 0.000000
      CHANNELS 3 Yrotation Xrotation Zrotation
      JOINT RightShoulder
      {
       OFFSET -13.519700 0.000000 0.000000
       CHANNELS 3 Yrotation Xrotation Zrotation
       JOINT RightElbow
       {
        OFFSET 0.000000 -29.696600 0.000000
        CHANNELS 3 Yrotation Xrotation Zrotation
        JOINT RightWrist
        {
         OFFSET 0.000000 -24.004700 0.000000
         CHANNELS 3 Yrotation Xrotation Zrotation
         End Site
         {
          OFFSET 0.000000 -17.728500 0.000000
         }
        }
       }
      }
     }
     JOINT LeftCollar
     {
      OFFSET 2.921100 9.558500 0.000000
      CHANNELS 3 Yrotation Xrotation Zrotation
      JOINT LeftShoulder
      {
       OFFSET 13.519700 0.000000 0.000000
       CHANNELS 3 Yrotation Xrotation Zrotation
       JOINT LeftElbow
       {
        OFFSET 0.000000 -29.696600 0.000000
        CHANNELS 3 Yrotation Xrotation Zrotation
        JOINT LeftWrist
        {
         OFFSET 0.000000 -24.004700 0.000000
         CHANNELS 3 Yrotation Xrotation Zrotation
         End Site
         {
          OFFSET 0.000000 -17.728500 0.000000
         }
        }
       }
      }
     }
    }
   }
  }
 }
 JOINT RightHip
 {
  OFFSET -7.771700 -0.012900 -0.001300
  CHANNELS 3 Yrotation Xrotation Zrotation
  JOINT RightKnee
  {
   OFFSET 0.000000 -40.869800 0.001200
   CHANNELS 3 Yrotation Xrotation Zrotation
   JOINT RightAnkle
   {
    OFFSET 0.000000 -39.717900 0.002100
    CHANNELS 3 Yrotation Xrotation Zrotation
    JOINT RightToe
    {
     OFFSET 0.000000 -4.965400 11.033500
     CHANNELS 3 Yrotation Xrotation Zrotation
     End Site
     {
      OFFSET 0.000000 -1.423100 5.872300
     }
    }
   }
  }
 }
 JOINT LeftHip
 {
  OFFSET 7.771700 -0.012900 -0.001300
  CHANNELS 3 Yrotation Xrotation Zrotation
  JOINT LeftKnee
  {
   OFFSET 0.000000 -40.869800 0.001200
   CHANNELS 3 Yrotation Xrotation Zrotation
   JOINT LeftAnkle
   {
    OFFSET 0.000000 -39.717900 0.002100
    CHANNELS 3 Yrotation Xrotation Zrotation
    JOINT LeftToe
    {
     OFFSET 0.000000 -4.965400 11.033500
     CHANNELS 3 Yrotation Xrotation Zrotation
     End Site
     {
      OFFSET 0.000000 -1.423100 5.872300
     }
    }
   }
  }
 }
}
MOTION
Frames: 16
Frame Time: 0.008333
-216.040996 57.307962 134.291637 178.151298 -32.010465 -1.986283 2.188025 21.655180 2.609741 0.039885 2.872941 0.307852 0.069904 4.687579 0.503503 0.537753 18.224742 2.051062 -0.699870 10.460015 -1.916587 -0.501502 -16.337018 -3.351599 2.184630 -2.100337 -2.948489 -0.749212 -17.325731 -13.099303 160.014476 -43.984148 -149.003097 16.042850 -17.983346 -52.172081 -7.751822 -2.296345 -1.251385 40.753198 -15.037440 0.206628 -162.744586 -37.765010 167.162581 -9.237113 -19.060313 36.882564 7.065884 -43.884738 -4.624102 -15.860784 67.266172 -19.828930 4.191137 25.556637 2.006948 -1.852136 -17.088130 10.011153 -10.498116 -42.288408 2.995639 32.459431 70.139372 33.980671 -13.015138 5.874420 -3.997771 0.568029 -5.387727 -3.832114
-216.052244 57.296845 134.303938 178.257886 -32.015379 -2.030697 2.086428 21.667240 2.593398 0.040627 2.874272 0.308397 0.072762 4.690223 0.504270 0.541080 18.222349 2.052487 -0.700072 10.468357 -1.904323 -0.516760 -16.315877 -3.296967 2.179061 -2.085011 -2.914802 -0.750851 -17.328047 -13.042376 160.005554 -43.939454 -148.994001 16.043765 -17.963540 -52.200711 -7.788523 -2.287899 -1.260835 40.860386 -15.064725 0.127947 -162.747177 -37.719684 167.241502 -9.227664 -19.070047 36.895069 6.979573 -43.895307 -4.653770 -15.848817 67.252363 -19.820795 4.174370 25.598601 1.962663 -1.800244 -17.065042 10.037069 -10.595937 -42.288999 2.995076 32.453118 70.146905 33.956563 -12.990463 5.946185 -3.974343 0.542400 -5.452672 -3.850238
-216.058525 57.287942 134.314890 178.268010 -32.033679 -2.039053 2.075539 21.693511 2.594232 0.041332 2.877370 0.309147 0.075315 4.687410 0.505184 0.544808 18.237985 2.057512 -0.702872 10.502578 -1.861621 -0.521422 -16.342848 -3.277199 2.176559 -2.105250 -2.915425 -0.739319 -17.316008 -12.974471 159.959597 -43.904475 -148.950103 16.026026 -17.940327 -52.269272 -7.842698 -2.283247 -1.280102 40.980110 -15.102833 0.039437 -162.742743 -37.674060 167.314006 -9.216931 -19.085650 36.905761 6.959798 -43.895304 -4.658351 -15.832059 67.238569 -19.806334 4.187218 25.648860 1.951024 -1.784961 -17.068258 10.045423 -10.607135 -42.272072 2.999637 32.450422 70.148943 33.948006 -12.990336 5.958695 -3.953931 0.541354 -5.463209 -3.867880
-216.067225 57.276643 134.331176 178.219988 -32.014979 -1.990109 2.086293 21.695248 2.547802 0.044166 2.886042 0.309564 0.081328 4.694921 0.508148 0.560303 18.257059 2.058648 -0.701355 10.479533 -1.835196 -0.533160 -16.345127 -3.227535 2.173342 -2.148824 -2.887719 -0.702594 -17.316095 -12.928456 159.900260 -43.875419 -148.902470 15.995995 -17.922517 -52.316099 -7.859556 -2.326322 -1.273686 41.059400 -15.113223 -0.048803 -162.735042 -37.632711 167.379228 -9.204653 -19.104047 36.916642 6.997900 -43.963816 -4.715656 -15.812951 67.240413 -19.793014 4.264695 25.769992 1.966772 -1.802550 -17.129621 10.039606 -10.552172 -42.296638 2.978255 32.445932 70.150484 33.939513 -12.993931 5.969225 -3.951375 0.547326 -5.472912 -3.869685
-216.067575 57.268521 134.344826 178.217163 -32.016364 -2.002919 2.090097 21.705606 2.553996 0.045286 2.890939 0.309673 0.085131 4.686204 0.513949 0.564393 18.294362 2.050714 -0.702046 10.469471 -1.806290 -0.546156 -16.348434 -3.175714 2.168673 -2.160538 -2.860451 -0.656018 -17.339281 -12.881301 159.878954 -43.865152 -148.906916 15.972655 -17.905679 -52.331736 -7.917600 -2.333041 -1.299494 41.166474 -15.159343 -0.127201 -162.724684 -37.599522 167.435017 -9.193550 -19.121897 36.929544 6.979720 -43.980686 -4.703689 -15.818543 67.203477 -19.794112 4.296165 25.869325 1.952489 -1.773985 -17.126074 10.043864 -10.573694 -42.295056 3.010488 32.433499 70.153578 33.913676 -12.974311 5.992312 -3.934523 0.517173 -5.490170 -3.879606
-216.067841 57.261502 134.358203 178.220929 -32.019515 -2.009345 2.087921 21.714895 2.553935 0.045953 2.894628 0.309716 0.081147 4.699174 0.509269 0.575858 18.303812 2.052027 -0.702524 10.460993 -1.783134 -0.560658 -16.342227 -3.117819 2.166219 -2.167106 -2.843607 -0.604725 -17.358200 -12.829018 159.981810 -43.898989 -149.024958 16.022595 -17.877092 -52.310081 -7.959919 -2.337252 -1.316787 41.247240 -15.186696 -0.208181 -162.711441 -37.574097 167.483356 -9.185453 -19.136429 36.939485 6.964002 -43.994107 -4.703639 -15.826850 67.167303 -19.799837 4.333692 25.968506 1.937186 -1.772727 -17.157610 10.059214 -10.602751 -42.291728 3.037503 32.418550 70.159714 33.877076 -12.962340 6.008556 -3.908657 0.501946 -5.502906 -3.899446
-216.070175 57.254900 134.371969 178.221098 -32.019200 -1.992619 2.081503 21.717017 2.534950 0.045223 2.903361 0.304856 0.084751 4.708025 0.510765 0.576893 18.299664 2.052563 -0.702144 10.477333 -1.760020 -0.573630 -16.340579 -3.062453 2.165044 -2.171572 -2.836831 -0.548632 -17.360015 -12.775327 160.042065 -43.932301 -149.090201 16.042662 -17.846489 -52.306526 -7.977960 -2.340994 -1.321754 41.292540 -15.184432 -0.290324 -162.693051 -37.554482 167.525131 -9.177425 -19.147618 36.943002 6.966689 -44.039888 -4.747577 -15.779878 67.173630 -19.743485 4.367287 26.134943 1.910340 -1.778541 -17.237079 10.078239 -10.595693 -42.295520 3.029422 32.388449 70.162887 33.837251 -12.961971 6.028579 -3.898086 0.498505 -5.518189 -3.907359
-216.063389 57.246254 134.391081 178.177545 -31.985306 -2.000854 2.123526 21.686171 2.558538 0.051537 2.910902 0.304091 0.082076 4.712717 0.510933 0.583459 18.297308 2.054567 -0.701042 10.502805 -1.731595 -0.583922 -16.343918 -3.011423 2.164673 -2.176460 -2.828953 -0.488565 -17.358578 -12.728045 159.997688 -43.933812 -149.064145 15.980757 -17.813342 -52.311774 -7.995178 -2.344698 -1.325644 41.319175 -15.189891 -0.329509 -162.684288 -37.563609 167.597692 -9.161548 -19.177616 36.891620 6.973992 -44.103139 -4.728635 -15.815866 67.112000 -19.737512 4.388330 26.319636 1.838252 -1.748231 -17.299604 10.105210 -10.600816 -42.325820 3.098088 32.370940 70.167495 33.804777 -12.943021 6.045531 -3.871761 0.474887 -5.529510 -3.924295
-216.061553 57.241442 134.404449 178.186897 -31.987723 -2.000813 2.119210 21.693941 2.549952 0.049329 2.916208 0.305553 0.085365 4.720317 0.509228 0.585875 18.338688 2.043149 -0.700193 10.459769 -1.701939 -0.597193 -16.321458 -2.947728 2.168204 -2.218241 -2.806874 -0.431143 -17.364860 -12.688472 160.050342 -43.975039 -149.106358 16.000587 -17.769738 -52.301565 -8.060753 -2.361783 -1.344146 41.381175 -15.217849 -0.410655 -162.633020 -37.521224 167.555944 -9.158143 -19.182796 36.895740 6.965790 -44.122916 -4.749047 -15.848521 67.091676 -19.749974 4.413073 26.409531 1.803498 -1.724838 -17.265123 10.115746 -10.609232 -42.325679 3.108027 32.368098 70.166157 33.786789 -12.943361 6.070721 -3.852848 0.456847 -5.548622 -3.934648
-216.058781 57.239129 134.414699 178.206398 -32.010819 -2.007611 2.105679 21.729857 2.542321 0.048534 2.914447 0.308151 0.084770 4.726955 0.507138 0.589118 18.350881 2.038888 -0.699628 10.446288 -1.682001 -0.602357 -16.317780 -2.920713 2.171831 -2.228084 -2.799429 -0.369156 -17.374005 -12.647471 160.072968 -44.014169 -149.116626 16.064804 -17.743245 -52.305965 -8.103611 -2.360117 -1.365830 41.405228 -15.228532 -0.480443 -162.577023 -37.518060 167.576796 -9.141688 -19.206355 36.881031 6.944898 -44.116852 -4.759179 -15.876772 67.075381 -19.765028 4.436955 26.483349 1.776845 -1.718151 -17.267090 10.128881 -10.623140 -42.303677 3.112294 32.349513 70.171102 33.761430 -12.940903 6.092370 -3.844025 0.453521 -5.568565 -3.942473
-216.058203 57.238185 134.423133 178.255961 -32.043334 -2.015505 2.059385 21.769856 2.519789 0.047655 2.916856 0.308883 0.088656 4.736502 0.508887 0.590507 18.363730 2.028548 -0.700110 10.449274 -1.649123 -0.606842 -16.330977 -2.903000 2.186812 -2.228690 -2.792934 -0.337449 -17.395927 -12.616297 160.029545 -44.024068 -149.083933 16.056810 -17.717432 -52.309238 -8.134461 -2.367889 -1.377326 41.401368 -15.234059 -0.522608 -162.532502 -37.536849 167.604801 -9.122231 -19.166847 36.913158 6.915893 -44.091156 -4.783004 -15.880739 67.067680 -19.765934 4.438084 26.526058 1.752285 -1.708581 -17.250528 10.146395 -10.649024 -42.274242 3.096312 32.322916 70.172834 33.716592 -12.925818 6.126237 -3.818504 0.444855 -5.592706 -3.957229
-216.055761 57.233213 134.438621 178.248711 -32.026428 -2.006386 2.065270 21.757866 2.508153 0.045256 2.914433 0.313337 0.088496 4.751866 0.502534 0.599691 18.375408 2.021255 -0.700012 10.479233 -1.607803 -0.629767 -16.318412 -2.803503 2.188240 -2.249214 -2.779183 -0.274413 -17.390763 -12.591624 159.956416 -44.026317 -149.038986 16.022949 -17.666270 -52.301547 -8.160581 -2.376423 -1.383345 41.382875 -15.235843 -0.557213 -162.491873 -37.547010 167.605615 -9.114970 -19.168780 36.907301 6.909710 -44.126739 -4.795532 -15.982968 67.016214 -19.848753 4.492037 26.644721 1.707745 -1.697075 -17.295571 10.167278 -10.650143 -42.292032 3.109762 32.282780 70.169848 33.660217 -12.905265 6.166851 -3.797326 0.426569 -5.618545 -3.969748
-216.057091 57.230103 134.450952 178.244049 -32.028131 -1.977899 2.061757 21.765132 2.474301 0.049849 2.919135 0.314482 0.092163 4.775647 0.490489 0.602317 18.370107 2.023681 -0.700514 10.459411 -1.585525 -0.649501 -16.271283 -2.727987 2.196193 -2.259663 -2.770364 -0.220904 -17.391853 -12.564329 159.895499 -44.070736 -148.942417 16.064090 -17.622697 -52.343811 -8.179665 -2.384097 -1.384425 41.364126 -15.242200 -0.578132 -162.479585 -37.573709 167.608723 -9.107188 -19.167164 36.903900 6.890332 -44.155127 -4.825893 -15.982240 67.009421 -19.861560 4.553825 26.736443 1.701429 -1.714275 -17.335974 10.172574 -10.626977 -42.294954 3.082442 32.271231 70.170397 33.643976 -12.899600 6.188141 -3.790153 0.423756 -5.636883 -3.976355
-216.058867 57.228517 134.460754 178.280500 -32.043995 -1.971675 2.024638 21.787215 2.442291 0.047491 2.924227 0.311368 0.097515 4.781532 0.490844 0.608134 18.381466 2.016642 -0.704022 10.467012 -1.557580 -0.654711 -16.282487 -2.707152 2.202965 -2.273136 -2.761319 -0.169898 -17.388245 -12.548106 159.803023 -44.089755 -148.859595 16.057101 -17.549296 -52.298226 -8.193867 -2.390987 -1.381636 41.359759 -15.261033 -0.582367 -162.509973 -37.627221 167.620841 -9.098693 -19.164621 36.900044 6.867609 -44.149896 -4.859164 -15.967939 67.009807 -19.854292 4.564652 26.761344 1.691290 -1.698167 -17.271083 10.176554 -10.635449 -42.283263 3.050713 32.239094 70.165791 33.609598 -12.896336 6.226431 -3.784790 0.424418 -5.664139 -3.984157
-216.058641 57.227316 134.469844 178.287369 -32.064170 -1.965863 2.019899 21.811307 2.429265 0.052064 2.935173 0.304963 0.094724 4.777635 0.496704 0.610698 18.383647 2.015288 -0.705488 10.488562 -1.543683 -0.662941 -16.293644 -2.683130 2.215121 -2.275734 -2.764983 -0.110028 -17.376618 -12.535393 159.700863 -44.107045 -148.775805 16.061230 -17.508060 -52.280694 -8.200063 -2.385669 -1.386727 41.323375 -15.252296 -0.608028 -162.480458 -37.618119 167.597531 -9.054205 -19.140323 36.874928 6.864809 -44.134012 -4.870947 -15.995964 66.984836 -19.879756 4.579923 26.790588 1.679417 -1.685063 -17.256973 10.182139 -10.637807 -42.263110 3.042573 32.224398 70.160834 33.589354 -12.895485 6.264646 -3.776140 0.425681 -5.695703 -3.996025
-216.060954 57.224550 134.480698 178.299100 -32.068807 -1.952172 2.005581 21.820325 2.404444 0.050110 2.933489 0.308253 0.095246 4.779167 0.496406 0.614786 18.392238 2.010865 -0.707813 10.508952 -1.529868 -0.682053 -16.278493 -2.638483 2.240568 -2.266085 -2.774737 -0.115395 -17.388052 -12.522138 159.668636 -44.132879 -148.715872 16.086685 -17.497496 -52.312293 -8.201573 -2.381245 -1.391934 41.250703 -15.213479 -0.645200 -162.466786 -37.626147 167.563805 -9.066221 -19.154335 36.873605 6.853897 -44.145215 -4.900084 -15.984974 66.973046 -19.873973 4.612304 26.854929 1.667356 -1.690648 -17.275717 10.194644 -10.652388 -42.259083 3.032664 32.207452 70.156050 33.555212 -12.889748 6.292690 -3.767979 0.421323 -5.715347 -4.005047
